<svg width="202" height="35" viewBox="0 0 202 35" fill="none" xmlns="http://www.w3.org/2000/svg">
  <g clip-path="url(#clip0)">
    <path d="M28.2083 20.7689C26.4111 20.7689 24.9535 19.3058 24.9535 17.5019C24.9535 15.6943 26.4111 14.2349 28.2083 14.2349C30.0054 14.2349 31.4631 15.6943 31.4631 17.5019C31.4631 19.3058 30.0054 20.7689 28.2083 20.7689Z" fill="#007FFF"/>
    <path d="M10.0375 17.9463L0.188203 27.8289C-0.0627344 28.0807 -0.0627344 28.4882 0.188203 28.7364L3.41349 31.9737C3.66442 32.2256 4.07035 32.2256 4.3176 31.9737L14.1669 22.0875C14.4178 21.8356 14.8238 21.8356 15.071 22.0875L25.3705 32.4256L25.3742 32.4219L27.7507 34.8074C28.0017 35.0593 28.4076 35.0593 28.6548 34.8074L45.4492 17.95C45.7001 17.6982 45.7001 17.2907 45.4492 17.0425L28.6585 0.188909C28.4076 -0.0629696 28.0017 -0.0629696 27.7544 0.188909L25.389 2.56323L25.3742 2.54842L15.0747 12.8903C14.8238 13.1421 14.4178 13.1421 14.1706 12.8903L4.32129 3.00402C4.07035 2.75214 3.66442 2.75214 3.41718 3.00402L0.191893 6.2414C-0.0590441 6.49328 -0.0590441 6.90073 0.191893 7.1489L10.0375 17.0351C10.2847 17.287 10.2847 17.6945 10.0375 17.9463ZM37.3971 17.9538L28.7582 26.625C28.5072 26.8769 28.1013 26.8769 27.8541 26.625L19.2041 17.9463C18.9532 17.6945 18.9532 17.287 19.2041 17.0388L27.843 8.36755C28.0939 8.11567 28.4998 8.11567 28.7471 8.36755L37.3934 17.0462C37.6443 17.2981 37.6443 17.7056 37.3971 17.9538Z" fill="#007FFF"/>
    <path d="M71.6832 18.8464C71.6832 23.5655 68.0815 27.1288 63.2325 27.1288C58.3872 27.1288 54.8003 23.5618 54.8003 18.8464C54.8003 14.1311 58.3872 10.5641 63.2325 10.5641C68.0778 10.5641 71.6832 14.1311 71.6832 18.8464ZM58.3208 18.8464C58.3208 21.8208 60.4316 23.8914 63.2325 23.8914C66.0334 23.8914 68.1627 21.8208 68.1627 18.8464C68.1627 15.8721 66.0334 13.8015 63.2325 13.8015C60.4316 13.8015 58.3208 15.8721 58.3208 18.8464Z" fill="#007FFF"/>
    <path d="M82.6839 18.6502L88.5957 26.7215H84.3888L80.4107 21.2468L76.4806 26.7215H72.4693L78.3811 18.6836L72.5689 10.9753H76.7758L80.5916 16.2352L84.4405 10.9753H88.485L82.6839 18.6502Z" fill="#007FFF"/>
    <path d="M104.608 18.8317C104.608 19.2762 104.574 19.7207 104.541 20.1133H92.9465C93.4041 22.9396 95.3857 24.1249 97.6146 24.1249C99.1867 24.1249 100.858 23.4989 102.15 22.4654L103.851 24.9138C101.936 26.5585 99.7735 27.1326 97.4006 27.1326C92.6992 27.1326 89.378 23.8471 89.378 18.8502C89.378 13.9201 92.5701 10.5679 97.1903 10.5679C101.578 10.5642 104.593 13.9164 104.608 18.8317ZM92.9649 17.4982H101.102C100.726 15.0498 99.3011 13.62 97.1238 13.62C94.6846 13.62 93.3266 15.198 92.9649 17.4982Z" fill="#007FFF"/>
    <path d="M123.258 26.7214H119.837V24.8323C118.756 26.2288 117.136 27.1326 114.907 27.1326C110.519 27.1326 107.062 23.6656 107.062 18.8502C107.062 14.0349 110.516 10.5679 114.907 10.5679C117.132 10.5679 118.756 11.4865 119.837 12.8866V10.979H123.258V26.7214ZM110.582 18.8465C110.582 21.6061 112.368 23.8915 115.313 23.8915C118.147 23.8915 120.044 21.7209 120.044 18.8465C120.044 15.9721 118.144 13.8015 115.313 13.8015C112.368 13.8015 110.582 16.087 110.582 18.8465Z" fill="#007FFF"/>
    <path d="M142.562 16.8277V26.7214H139.123V17.9612C139.123 15.3164 137.765 13.8348 135.469 13.8348C133.259 13.8348 131.41 15.2979 131.41 17.9945V26.7214H127.971V10.9752H131.377V12.8977C132.639 11.0419 134.587 10.5641 136.193 10.5641C139.923 10.5641 142.562 13.1458 142.562 16.8277Z" fill="#007FFF"/>
    <path d="M163.29 18.8465C163.29 23.6618 159.836 27.1289 155.445 27.1289C153.219 27.1289 151.614 26.2251 150.533 24.8434V26.7177H147.112V3.05225H150.533V12.8496C151.614 11.4679 153.219 10.5642 155.445 10.5642C159.832 10.5642 163.29 14.0312 163.29 18.8465ZM150.304 18.8465C150.304 21.7246 152.204 23.8915 155.035 23.8915C157.983 23.8915 159.766 21.6061 159.766 18.8465C159.766 16.087 157.98 13.8015 155.035 13.8015C152.204 13.8015 150.304 15.9721 150.304 18.8465Z" fill="#007FFF"/>
    <path d="M170.999 5.53405C170.999 6.89716 169.936 7.93431 168.575 7.93431C167.217 7.93431 166.183 6.89716 166.183 5.53405C166.183 4.17095 167.217 3.10046 168.575 3.10046C169.936 3.10046 170.999 4.17095 170.999 5.53405ZM170.313 26.7215H166.873V10.9754H170.313V26.7215Z" fill="#007FFF"/>
    <path d="M185.719 14.0979H179.708V20.9504C179.708 23.0692 180.823 23.8915 182.195 23.8915C183.258 23.8915 184.421 23.4137 185.354 22.8247L186.712 25.5694C185.45 26.4251 183.863 27.1326 181.896 27.1326C178.343 27.1326 176.265 25.2101 176.265 21.0171V14.0979H173.136V10.9753H176.265V6.20813H179.704V10.9753H185.716V14.0979H185.719Z" fill="#007FFF"/>
    <path d="M199.916 14.9201C198.968 14.3275 197.019 13.5718 195.071 13.5718C193.203 13.5718 192.107 14.3275 192.107 15.4461C192.107 16.5462 193.255 16.8611 194.694 17.0722L196.314 17.3204C199.735 17.813 201.768 19.2762 201.768 21.9727C201.768 24.9953 199.148 27.1177 194.628 27.1177C193.008 27.1177 190.188 26.8066 187.897 25.0953L189.484 22.5135C190.613 23.384 192.104 24.1248 194.657 24.1248C197.001 24.1248 198.226 23.384 198.226 22.2024C198.226 21.3134 197.373 20.7245 195.506 20.4615L193.868 20.2466C190.395 19.7688 188.546 18.1575 188.546 15.6276C188.546 12.5051 191.033 10.5826 195.03 10.5826C197.488 10.5826 199.761 11.1901 201.385 12.2421L199.916 14.9201Z" fill="#007FFF"/>
  </g>
  <defs>
    <clipPath id="clip0">
      <rect width="201.765" height="35" fill="white"/>
    </clipPath>
  </defs>
</svg>
